<svg width="24" height="37" viewBox="0 0 24 37" fill="none" xmlns="http://www.w3.org/2000/svg">
<path d="M16.5963 3.83958L22.0466 0.677272C22.9152 0.173261 24 0.803994 24 1.81274V34.4618C24 35.4706 22.9145 36.1013 22.0459 35.5973L16.607 32.4407C16.2042 32.2067 15.7083 32.2067 15.3054 32.4407L8.61298 36.3245C8.21013 36.5585 7.71426 36.5585 7.31141 36.3245L0.651859 32.4595C0.248293 32.2255 0 31.792 0 31.324V14.2251C0 13.7563 0.248293 13.3236 0.651859 13.0889L7.26633 9.25121C7.67061 9.01721 8.16791 9.01793 8.57148 9.25337L13.9516 12.3955C14.816 12.9002 14.8167 14.1567 13.9531 14.6621L1.97275 21.6816C1.10766 22.1884 1.11052 23.447 1.97776 23.9503L13.9917 30.9215C14.8604 31.4255 15.9459 30.7948 15.9459 29.786V4.97576C15.9459 4.50703 16.1942 4.0743 16.5977 3.8403L16.5963 3.83958Z" fill="white"/>
</svg>
